<svg xmlns="http://www.w3.org/2000/svg" viewBox="0 0 320 80">
  <defs>
    <linearGradient id="pulse" x1="0%" x2="100%" y1="0%" y2="0%">
      <stop offset="0%" stop-color="#6B2EFF"/>
      <stop offset="50%" stop-color="#B300FF"/>
      <stop offset="100%" stop-color="#6B2EFF"/>
    </linearGradient>
  </defs>
  <rect width="320" height="80" rx="16" fill="#0a0018" stroke="url(#pulse)" stroke-width="2"/>
  <path d="M48 62C32 62 22 50 22 37c0-13 10-25 26-25 10 0 17 4 22 9l-10 9c-3-3-6-5-11-5-7 0-12 6-12 12 0 7 5 12 12 12 5 0 9-2 12-6l10 8c-6 7-14 11-23 11z" fill="url(#pulse)"/>
  <text x="100" y="48" fill="#f3e8ff" font-family="'Inter', sans-serif" font-size="28" font-weight="700">LoreKeeper</text>
  <text x="100" y="66" fill="#B300FF" font-family="'Inter', sans-serif" font-size="12" letter-spacing="2">Omega Technologies</text>
</svg>
