<svg width="200" height="120" viewBox="0 0 200 120" xmlns="http://www.w3.org/2000/svg">
  <!-- Main Omega Symbol - Stylized Q/Omega -->
  <path 
    d="M 40 25
       C 25 25 15 35 15 50
       C 15 60 20 70 30 78
       C 40 85 55 90 70 92
       C 85 90 100 85 110 78
       C 120 70 125 60 125 50
       C 125 35 115 25 100 25
       L 100 87
       C 115 87 125 77 125 62
       C 125 47 115 37 100 37
       C 85 37 75 47 75 62
       C 75 77 85 87 100 87
       Z" 
    fill="#7c3aed" 
    stroke="none"
  />
  
  <!-- Internal Square -->
  <rect x="115" y="38" width="10" height="10" fill="#7c3aed" rx="1"/>
  
  <!-- LORE Text -->
  <text x="100" y="75" 
        font-family="'Space Grotesk', sans-serif" 
        font-size="18" 
        font-weight="700" 
        fill="#7c3aed" 
        text-anchor="middle" 
        letter-spacing="2px">LORE</text>
  
  <!-- KEEPER Text -->
  <text x="100" y="95" 
        font-family="'Space Grotesk', sans-serif" 
        font-size="18" 
        font-weight="700" 
        fill="#9ca3af" 
        text-anchor="middle" 
        letter-spacing="2px">KEEPER</text>
</svg>
